<svg 
 xmlns="http://www.w3.org/2000/svg"
 xmlns:xlink="http://www.w3.org/1999/xlink"
 width="208px" height="37px">
<path fill-rule="evenodd"  fill="#4273FA"
 d="M191.324,25.867 C191.861,28.516 194.578,30.066 197.390,29.651 C200.015,29.264 201.308,27.806 201.701,25.847 L208.013,26.673 C207.472,30.942 204.211,34.930 198.203,35.815 C191.667,36.778 185.160,32.963 183.986,24.999 C182.862,17.369 187.818,11.670 193.969,10.763 C201.318,9.680 206.514,13.542 207.639,21.172 C207.786,22.174 207.855,23.284 207.829,23.435 L191.324,25.867 ZM194.911,16.472 C191.858,16.922 190.662,19.387 190.780,21.173 L200.270,19.774 C199.911,17.975 198.344,15.966 194.911,16.472 ZM172.770,0.405 L180.100,0.405 L180.100,35.303 L172.770,35.303 L172.770,0.405 ZM157.570,35.833 C154.387,35.833 151.929,34.436 150.818,32.603 L150.818,35.303 L143.732,35.303 L143.732,0.405 L150.916,0.405 L150.916,13.612 C151.929,12.117 154.579,10.769 157.857,10.769 C164.801,10.769 168.994,16.071 168.994,23.251 C168.994,30.579 164.272,35.833 157.570,35.833 ZM156.267,17.373 C153.421,17.373 150.818,19.252 150.818,23.301 C150.818,27.253 153.421,29.278 156.267,29.278 C159.113,29.278 161.665,27.302 161.665,23.301 C161.665,19.252 159.113,17.373 156.267,17.373 ZM132.917,32.603 C131.664,34.628 129.349,35.978 126.169,35.978 C120.912,35.978 117.874,32.507 117.874,28.699 C117.874,24.457 121.010,22.047 124.963,21.470 L130.605,20.601 C131.904,20.408 132.340,19.782 132.340,18.962 C132.340,17.564 131.135,16.360 128.818,16.360 C126.263,16.360 124.865,18.094 124.720,19.879 L118.357,18.577 C118.647,15.155 121.827,10.623 128.869,10.623 C136.631,10.623 139.473,14.962 139.473,19.879 L139.473,31.592 C139.473,33.472 139.716,35.062 139.763,35.303 L133.160,35.303 C133.109,35.111 132.917,34.243 132.917,32.603 ZM132.340,24.843 L127.806,25.565 C126.263,25.807 125.109,26.531 125.109,28.217 C125.109,29.471 125.925,30.676 127.951,30.676 C130.122,30.676 132.340,29.616 132.340,25.903 L132.340,24.843 ZM109.237,26.723 C109.237,28.699 110.297,29.229 111.891,29.229 C112.660,29.229 113.383,29.084 113.818,28.988 L113.818,35.062 C113.528,35.207 112.323,35.736 110.010,35.736 C105.045,35.736 102.006,32.797 102.006,28.024 L102.006,17.757 L100.041,17.757 L97.762,17.757 L92.123,17.757 L92.123,35.303 L84.794,35.303 L84.794,17.516 L80.986,17.516 L80.986,11.346 L84.794,11.346 L84.794,9.273 C84.794,3.779 88.123,0.019 93.956,0.019 C95.448,0.019 96.751,0.211 97.426,0.548 L97.426,6.526 C97.042,6.430 96.414,6.285 95.256,6.285 C93.956,6.285 92.123,6.863 92.123,9.515 L92.123,11.346 L97.328,11.346 L97.762,11.346 L98.967,11.346 C101.476,11.346 102.681,9.660 102.681,7.442 L102.681,4.358 L109.237,4.358 L109.237,11.346 L113.912,11.346 L113.912,17.757 L109.237,17.757 L109.237,26.723 ZM71.910,32.603 C70.657,34.628 68.341,35.978 65.161,35.978 C59.905,35.978 56.866,32.507 56.866,28.699 C56.866,24.457 60.003,22.047 63.956,21.470 L69.597,20.601 C70.897,20.408 71.332,19.782 71.332,18.962 C71.332,17.564 70.127,16.360 67.811,16.360 C65.256,16.360 63.858,18.094 63.713,19.879 L57.349,18.577 C57.640,15.155 60.819,10.623 67.862,10.623 C75.623,10.623 78.466,14.962 78.466,19.879 L78.466,31.592 C78.466,33.472 78.709,35.062 78.756,35.303 L72.153,35.303 C72.102,35.111 71.910,34.243 71.910,32.603 ZM71.332,24.843 L66.798,25.565 C65.256,25.807 64.101,26.531 64.101,28.217 C64.101,29.471 64.918,30.676 66.943,30.676 C69.115,30.676 71.332,29.616 71.332,25.903 L71.332,24.843 ZM51.359,18.336 C48.418,18.336 45.769,20.070 45.769,24.843 L45.769,35.303 L38.439,35.303 L38.439,11.346 L45.525,11.346 L45.525,14.576 C46.781,11.878 49.816,11.107 51.743,11.107 C52.470,11.107 53.192,11.203 53.675,11.346 L53.675,18.577 C52.854,18.385 52.081,18.336 51.359,18.336 ZM17.739,28.411 C23.667,28.411 26.030,24.457 26.705,22.000 L33.983,24.072 C32.876,28.795 28.346,36.025 17.739,36.025 C7.901,36.025 -0.005,28.941 -0.005,18.287 C-0.005,7.635 8.093,0.405 17.641,0.405 C27.910,0.405 32.441,7.009 33.552,11.925 L26.368,14.191 C25.838,11.829 23.667,7.828 17.641,7.828 C13.059,7.828 7.901,11.107 7.901,18.287 C7.901,24.698 12.628,28.411 17.739,28.411 Z"/>
</svg>